<?xml version="1.0" standalone="no"?>
<!DOCTYPE svg PUBLIC "-//W3C//DTD SVG 20010904//EN"
 "http://www.w3.org/TR/2001/REC-SVG-20010904/DTD/svg10.dtd">
<svg version="1.0" xmlns="http://www.w3.org/2000/svg"
 width="260.000000pt" height="260.000000pt" viewBox="0 0 260.000000 260.000000"
 preserveAspectRatio="xMidYMid meet">
<metadata>
Created by potrace 1.11, written by Peter Selinger 2001-2013
</metadata>
<g transform="translate(0.000000,260.000000) scale(0.100000,-0.100000)"
fill="#000000" stroke="none">
<path d="M666 2004 c-80 -75 -147 -143 -150 -151 -3 -8 -6 -257 -6 -553 l0
-539 22 -24 c34 -36 271 -187 294 -187 11 0 25 5 32 12 9 9 12 197 12 785 0
753 0 773 -19 783 -11 5 -25 10 -30 10 -6 0 -76 -61 -155 -136z"/>
<path d="M1736 2118 c-14 -20 -16 -110 -16 -773 0 -663 2 -753 16 -773 8 -12
23 -22 33 -22 18 0 249 146 289 183 l22 20 0 553 0 552 -147 141 c-80 78 -154
141 -164 141 -10 0 -25 -10 -33 -22z"/>
<path d="M1089 1394 c-144 -115 -129 -64 -129 -453 0 -255 3 -341 13 -353 11
-14 215 -128 230 -128 3 0 13 7 21 16 14 14 16 71 16 485 0 305 -4 477 -10
490 -18 32 -43 22 -141 -57z"/>
<path d="M1357 1463 c-4 -3 -7 -226 -7 -494 0 -585 -15 -539 148 -453 59 31
113 64 120 72 9 12 12 99 12 359 l0 342 -112 91 c-102 82 -142 102 -161 83z"/>
</g>
</svg>
