<?xml version="1.0" encoding="utf-8"?>
<!-- Generator: Adobe Illustrator 19.2.0, SVG Export Plug-In . SVG Version: 6.00 Build 0)  -->
<svg version="1.1" id="Layer_1" xmlns="http://www.w3.org/2000/svg" xmlns:xlink="http://www.w3.org/1999/xlink" x="0px" y="0px"
	 viewBox="0 0 250 350" style="enable-background:new 0 0 250 350;" xml:space="preserve">
<style type="text/css">
	.st0{fill:#3A3A3A;}
	.st1{fill:url(#SVGID_1_);}
	.st2{opacity:0.2;}
	.st3{fill:#FBFBFB;}
	.st4{fill:none;stroke:#FBFBFB;stroke-miterlimit:10;}
	.st5{opacity:0.52;}
	.st6{opacity:0.6;}
	.st7{fill:#353535;}
	.st8{font-family:'BebasNeueBold';}
	.st9{font-size:84px;}
</style>
<g>
	<g>
		<g>
			<path class="st0" d="M181.8,206.3L87.1,252c-17,8.2-31.4-2.4-32.1-23.5l-3.7-118.1C50.7,89.3,64,65.3,81,57.1l94.8-45.8
				c17-8.2,31.4,2.4,32.1,23.5l3.7,118.1C212.2,174,198.9,198,181.8,206.3z"/>
		</g>
		<g>
			
				<linearGradient id="SVGID_1_" gradientUnits="userSpaceOnUse" x1="5.4388" y1="124.2167" x2="234.1329" y2="124.2167" gradientTransform="matrix(0.9004 -0.435 -0.435 -0.9004 66.8291 291.9516)">
				<stop  offset="1.500924e-03" style="stop-color:#1ACC94"/>
				<stop  offset="0.272" style="stop-color:#3ED8A8"/>
				<stop  offset="0.5805" style="stop-color:#61E4BB"/>
				<stop  offset="0.8344" style="stop-color:#76EBC7"/>
				<stop  offset="1" style="stop-color:#7EEECB"/>
			</linearGradient>
			<path class="st1" d="M171,202.6l-94.7,45.8c-17,8.2-31.4-2.4-32.1-23.5l-3.7-118.1c-0.7-21.1,12.6-45.1,29.7-53.4L165,7.6
				c17-8.2,31.4,2.4,32.1,23.5l3.7,118.1C201.4,170.4,188.1,194.4,171,202.6z"/>
		</g>
	</g>
	<g>
		<g class="st2">
			<g>
				
					<ellipse transform="matrix(0.9004 -0.435 0.435 0.9004 -58.5029 62.7892)" class="st3" cx="107.9" cy="159.2" rx="3.7" ry="3.7"/>
				<ellipse transform="matrix(0.9004 -0.435 0.435 0.9004 -21.0045 82.6281)" class="st3" cx="170" cy="87.2" rx="3.7" ry="3.7"/>
				
					<ellipse transform="matrix(0.9004 -0.435 0.435 0.9004 -36.4888 54.4033)" class="st3" cx="100.6" cy="106.9" rx="3.7" ry="3.7"/>
				
					<ellipse transform="matrix(0.9004 -0.435 0.435 0.9004 -62.5123 81.6903)" class="st3" cx="147.2" cy="177.4" rx="3.7" ry="3.7"/>
				
					<ellipse transform="matrix(0.9004 -0.435 0.435 0.9004 -78.1352 78.4494)" class="st3" cx="132.3" cy="209.9" rx="3.7" ry="3.7"/>
				
					<ellipse transform="matrix(0.9004 -0.435 0.435 0.9004 -76.3906 48.6643)" class="st3" cx="68.1" cy="191.2" rx="3.7" ry="3.7"/>
				
					<ellipse transform="matrix(0.9004 -0.435 0.435 0.9004 -10.4085 60.9313)" class="st3" cx="127.9" cy="53.2" rx="3.7" ry="3.7"/>
				<ellipse transform="matrix(0.9004 -0.435 0.435 0.9004 10.9597 76.6885)" class="st3" cx="173" cy="14.4" rx="3.7" ry="3.7"/>
				<ellipse transform="matrix(0.9004 -0.435 0.435 0.9004 0.7993 86.8862)" class="st3" cx="190.2" cy="41.7" rx="3.7" ry="3.7"/>
				<ellipse transform="matrix(0.9004 -0.435 0.435 0.9004 -23.529 37.2057)" class="st3" cx="69.5" cy="70" rx="3.7" ry="3.7"/>
				
					<ellipse transform="matrix(0.9004 -0.435 0.435 0.9004 -39.955 91.2277)" class="st3" cx="179.3" cy="132.9" rx="3.7" ry="3.7"/>
			</g>
			<g>
				<path class="st4" d="M147.2,177.4c0,0-19.8-14.4-39.4-18.2c0,0,12.6,44.5,24.5,50.6"/>
				<path class="st4" d="M127.9,53.2c0,0,29.7,20.4,42.1,34c1.1,1.2-62.1,4.1-68.9,20.7c-4.9,12,23.7,41.4,6.7,51.3
					s-39.7,31.9-39.7,31.9"/>
				<path class="st4" d="M190.2,41.7L170,87.2c-20.1-39.4,2.9-72.8,2.9-72.8"/>
				<path class="st4" d="M179.3,132.9c0,0-41.7-0.9-78.6-26.1C82,94.2,69.5,70,69.5,70"/>
			</g>
		</g>
		<g class="st5">
			<g>
				<ellipse transform="matrix(0.33 -0.944 0.944 0.33 7.337 183.2884)" class="st3" cx="132.8" cy="86.5" rx="3.7" ry="3.7"/>
				<ellipse transform="matrix(0.33 -0.944 0.944 0.33 -13.0691 288.9868)" class="st3" cx="197" cy="153.7" rx="3.7" ry="3.7"/>
				<ellipse transform="matrix(0.33 -0.944 0.944 0.33 -43.5005 217.6808)" class="st3" cx="131.6" cy="139.5" rx="3.7" ry="3.7"/>
				<ellipse transform="matrix(0.33 -0.944 0.944 0.33 80.5794 192.2181)" class="st3" cx="175.7" cy="39.3" rx="3.7" ry="3.7"/>
				<ellipse transform="matrix(0.33 -0.944 0.944 0.33 53.6017 144.822)" class="st3" cx="128.8" cy="34.7" rx="3.7" ry="3.7"/>
				<ellipse transform="matrix(0.33 -0.944 0.944 0.33 15.9541 119.4857)" class="st3" cx="92.1" cy="48.5" rx="3.7" ry="3.7"/>
				<ellipse transform="matrix(0.33 -0.944 0.944 0.33 -68.5328 282.6758)" class="st3" cx="164.9" cy="189.6" rx="3.7" ry="3.7"/>
				<ellipse transform="matrix(0.33 -0.944 0.944 0.33 -92.6897 229.8231)" class="st3" cx="115.6" cy="180.2" rx="3.7" ry="3.7"/>
				<ellipse transform="matrix(0.33 -0.944 0.944 0.33 33.5937 249.7003)" class="st3" cx="192.7" cy="101.2" rx="3.7" ry="3.7"/>
			</g>
			<g>
				<path class="st4" d="M175.7,39.3c0,0-11.7,39.3-42.9,47.2c0,0-9-44.8-4-51.9"/>
				<path class="st4" d="M164.9,189.7c0,0,21.5-20.9,32.2-35.9c0.9-1.3-56.4,0.2-65-15.5c-6.2-11.3,18.9-43.8,0.8-51.7
					S92.2,48.5,92.2,48.5"/>
				<path class="st4" d="M192.7,101.2c0,0-27.3,9.1-61,38.2c-17.1,14.8-16.1,40.7-16.1,40.7"/>
			</g>
		</g>
		<g class="st6">
			<g>
				
					<ellipse transform="matrix(0.7446 -0.6675 0.6675 0.7446 -119.585 125.8577)" class="st3" cx="104.7" cy="219.2" rx="3.7" ry="3.7"/>
				
					<ellipse transform="matrix(0.7446 -0.6675 0.6675 0.7446 -128.9328 92.4026)" class="st3" cx="56.3" cy="214.7" rx="3.7" ry="3.7"/>
				
					<ellipse transform="matrix(0.7446 -0.6675 0.6675 0.7446 -76.7201 96.2385)" class="st3" cx="87.4" cy="148.4" rx="3.7" ry="3.7"/>
				
					<ellipse transform="matrix(0.7446 -0.6675 0.6675 0.7446 -91.6113 116.5519)" class="st3" cx="106.5" cy="178" rx="3.7" ry="3.7"/>
			</g>
			<g>
				<path class="st4" d="M56.4,214.7c0,0,32.7-5.2,48.5,4.6c1.3,0.8-42.6,9.7-43.6,31.9"/>
				<path class="st4" d="M106.5,178l-1.7,41.2c-30.2-32.3-17.4-70.8-17.4-70.8"/>
			</g>
		</g>
		<g class="st6">
			<g>
				
					<ellipse transform="matrix(0.3937 -0.9192 0.9192 0.3937 -84.0042 117.9875)" class="st3" cx="47.4" cy="122.7" rx="3.7" ry="3.7"/>
				
					<ellipse transform="matrix(0.3937 -0.9192 0.9192 0.3937 -47.7693 149.0505)" class="st3" cx="89.1" cy="110.7" rx="3.7" ry="3.7"/>
				
					<ellipse transform="matrix(0.3937 -0.9192 0.9192 0.3937 -97.4675 173.9138)" class="st3" cx="83.1" cy="160.8" rx="3.7" ry="3.7"/>
				
					<ellipse transform="matrix(0.3937 -0.9192 0.9192 0.3937 -134.8125 152.5498)" class="st3" cx="48.2" cy="178.5" rx="3.7" ry="3.7"/>
				
					<ellipse transform="matrix(0.3937 -0.9192 0.9192 0.3937 -10.7393 127.8046)" class="st3" cx="91.5" cy="72" rx="3.7" ry="3.7"/>
			</g>
			<g>
				<path class="st4" d="M89.1,110.7c0,0-24.4,2.1-41.7,12.1c0,0,27,36.9,35.6,38"/>
				<path class="st4" d="M48.2,178.5c0,0-7-37-0.6-55.7s-6.2-13.7-7-13.7"/>
				<path class="st4" d="M91.4,72.1c0,0-23.3,20.1-47.4,13.7"/>
			</g>
		</g>
	</g>
	<g>
		<g class="st2">
			<path class="st7" d="M74.4,90.4v63.9c0,1.8,0.9,3.5,2.5,4.5l15.4,10c1.8,1.1,4.2-0.1,4.2-2.3V73.1c0-2.4-2.8-3.6-4.5-1.9L76,86.5
				C75,87.5,74.4,88.9,74.4,90.4z"/>
			<path class="st7" d="M174,90.4v63.9c0,1.8-0.9,3.5-2.5,4.5l-15.4,10c-1.8,1.1-4.2-0.1-4.2-2.3V73.1c0-2.4,2.8-3.6,4.5-1.9
				l15.9,15.2C173.5,87.5,174,88.9,174,90.4z"/>
			<path class="st7" d="M102.3,124.6V165c0,1.1,0.7,2.2,1.8,2.8l11.7,6.3c1.3,0.8,3.1-0.1,3.1-1.4v-58.9c0-1.5-2.2-2.3-3.4-1.2
				l-12,9.7C102.7,122.8,102.3,123.7,102.3,124.6z"/>
			<path class="st7" d="M145.7,124.6V165c0,1.1-0.8,2.2-1.9,2.8l-12,6.3c-1.4,0.8-3.2-0.1-3.2-1.4v-58.9c0-1.5,2.2-2.3,3.5-1.2
				l12.3,9.7C145.3,122.8,145.7,123.7,145.7,124.6z"/>
		</g>
		<g>
			<path class="st0" d="M75.2,90v63.9c0,1.8,0.9,3.5,2.5,4.5l15.4,10c1.8,1.1,4.2-0.1,4.2-2.3V72.8c0-2.4-2.8-3.6-4.5-1.9L76.9,86.1
				C75.8,87.1,75.2,88.6,75.2,90z"/>
			<path class="st0" d="M172.9,90v63.9c0,1.8-0.9,3.5-2.5,4.5l-15.4,10c-1.8,1.1-4.2-0.1-4.2-2.3V72.8c0-2.4,2.8-3.6,4.5-1.9
				l15.8,15.3C172.2,87.1,172.9,88.6,172.9,90z"/>
			<path class="st0" d="M103.4,124.4v40.4c0,1.1,0.7,2.2,1.8,2.8l11.7,6.3c1.3,0.8,3.1-0.1,3.1-1.4v-59.1c0-1.5-2.2-2.3-3.4-1.2
				l-12,9.7C103.8,122.6,103.4,123.4,103.4,124.4z"/>
			<path class="st0" d="M144.6,124.4v40.4c0,1.1-0.8,2.2-1.9,2.8l-12,6.3c-1.4,0.8-3.2-0.1-3.2-1.4v-59.1c0-1.5,2.2-2.3,3.5-1.2
				l12.3,9.7C144.1,122.6,144.6,123.4,144.6,124.4z"/>
		</g>
	</g>
</g>
<text transform="matrix(1 0 0 1 44.4915 326.7225)" class="st3 st8 st9">BRYPT</text>
</svg>
