<?xml version="1.0" encoding="utf-8"?>
<!-- Generator: Adobe Illustrator 19.2.0, SVG Export Plug-In . SVG Version: 6.00 Build 0)  -->
<svg version="1.1" id="Layer_1" xmlns="http://www.w3.org/2000/svg" xmlns:xlink="http://www.w3.org/1999/xlink" x="0px" y="0px"
	 viewBox="0 0 800 250" style="enable-background:new 0 0 800 250;" xml:space="preserve">
<style type="text/css">
	.st0{fill:#3A3A3A;}
	.st1{fill:url(#SVGID_1_);}
	.st2{opacity:0.2;}
	.st3{fill:#FBFBFB;}
	.st4{fill:none;stroke:#FBFBFB;stroke-miterlimit:10;}
	.st5{opacity:0.52;}
	.st6{opacity:0.6;}
	.st7{fill:#353535;}
	.st8{font-family:'BebasNeueBold';}
	.st9{font-size:240px;}
</style>
<g>
	<g>
		<g>
			<path class="st0" d="M168.9,202.8l-94.7,45.7c-17,8.2-31.4-2.4-32.1-23.5l-3.7-118.1c-0.6-21.1,12.7-45.1,29.7-53.3l94.8-45.8
				c17-8.2,31.4,2.4,32.1,23.5l3.7,118.1C199.3,170.5,186,194.5,168.9,202.8z"/>
		</g>
		<g>
			
				<linearGradient id="SVGID_1_" gradientUnits="userSpaceOnUse" x1="7.4661" y1="283.9992" x2="236.1602" y2="283.9992" gradientTransform="matrix(0.9004 -0.435 -0.435 -0.9004 121.6091 433.2016)">
				<stop  offset="1.500924e-03" style="stop-color:#1ACC94"/>
				<stop  offset="0.272" style="stop-color:#3ED8A8"/>
				<stop  offset="0.5805" style="stop-color:#61E4BB"/>
				<stop  offset="0.8344" style="stop-color:#76EBC7"/>
				<stop  offset="1" style="stop-color:#7EEECB"/>
			</linearGradient>
			<path class="st1" d="M158.1,199.1l-94.7,45.8c-17,8.2-31.4-2.4-32.1-23.5l-3.7-118.1c-0.7-21.1,12.6-45.1,29.7-53.4l94.8-45.8
				c17-8.2,31.4,2.4,32.1,23.5l3.7,118.1C188.5,166.9,175.2,190.9,158.1,199.1z"/>
		</g>
	</g>
	<g>
		<g class="st2">
			<g>
				<ellipse transform="matrix(0.9004 -0.435 0.435 0.9004 -58.224 56.8087)" class="st3" cx="95" cy="155.6" rx="3.7" ry="3.7"/>
				
					<ellipse transform="matrix(0.9004 -0.435 0.435 0.9004 -20.7604 76.6755)" class="st3" cx="157.1" cy="83.7" rx="3.7" ry="3.7"/>
				
					<ellipse transform="matrix(0.9004 -0.435 0.435 0.9004 -36.2447 48.4507)" class="st3" cx="87.7" cy="103.4" rx="3.7" ry="3.7"/>
				
					<ellipse transform="matrix(0.9004 -0.435 0.435 0.9004 -62.2682 75.7377)" class="st3" cx="134.3" cy="173.9" rx="3.7" ry="3.7"/>
				
					<ellipse transform="matrix(0.9004 -0.435 0.435 0.9004 -77.8911 72.4968)" class="st3" cx="119.4" cy="206.4" rx="3.7" ry="3.7"/>
				
					<ellipse transform="matrix(0.9004 -0.435 0.435 0.9004 -76.1117 42.6838)" class="st3" cx="55.2" cy="187.6" rx="3.7" ry="3.7"/>
				<ellipse transform="matrix(0.9004 -0.435 0.435 0.9004 -10.1644 54.9787)" class="st3" cx="115" cy="49.7" rx="3.7" ry="3.7"/>
				<ellipse transform="matrix(0.9004 -0.435 0.435 0.9004 11.2037 70.7359)" class="st3" cx="160.1" cy="10.9" rx="3.7" ry="3.7"/>
				<ellipse transform="matrix(0.9004 -0.435 0.435 0.9004 1.0434 80.9335)" class="st3" cx="177.3" cy="38.2" rx="3.7" ry="3.7"/>
				<ellipse transform="matrix(0.9004 -0.435 0.435 0.9004 -23.2501 31.2252)" class="st3" cx="56.6" cy="66.4" rx="3.7" ry="3.7"/>
				
					<ellipse transform="matrix(0.9004 -0.435 0.435 0.9004 -39.6761 85.2472)" class="st3" cx="166.4" cy="129.3" rx="3.7" ry="3.7"/>
			</g>
			<g>
				<path class="st4" d="M134.3,173.9c0,0-19.8-14.4-39.4-18.2c0,0,12.6,44.5,24.5,50.6"/>
				<path class="st4" d="M115,49.7c0,0,29.7,20.4,42.1,34c1.1,1.2-62.1,4.1-68.9,20.7c-4.9,12,23.7,41.4,6.7,51.3
					s-39.7,31.9-39.7,31.9"/>
				<path class="st4" d="M177.3,38.2l-20.2,45.5C137,44.3,160,10.9,160,10.9"/>
				<path class="st4" d="M166.4,129.4c0,0-41.7-0.9-78.6-26.1C69.1,90.7,56.6,66.5,56.6,66.5"/>
			</g>
		</g>
		<g class="st5">
			<g>
				<ellipse transform="matrix(0.33 -0.944 0.944 0.33 2.0611 168.7728)" class="st3" cx="119.9" cy="82.9" rx="3.7" ry="3.7"/>
				<ellipse transform="matrix(0.33 -0.944 0.944 0.33 -18.345 274.4712)" class="st3" cx="184.2" cy="150.2" rx="3.7" ry="3.7"/>
				<ellipse transform="matrix(0.33 -0.944 0.944 0.33 -48.7763 203.1652)" class="st3" cx="118.7" cy="135.9" rx="3.7" ry="3.7"/>
				<ellipse transform="matrix(0.33 -0.944 0.944 0.33 75.3035 177.7024)" class="st3" cx="162.8" cy="35.8" rx="3.7" ry="3.7"/>
				<ellipse transform="matrix(0.33 -0.944 0.944 0.33 48.3259 130.3064)" class="st3" cx="116" cy="31.1" rx="3.7" ry="3.7"/>
				<ellipse transform="matrix(0.33 -0.944 0.944 0.33 10.6462 104.8588)" class="st3" cx="79.2" cy="44.9" rx="3.7" ry="3.7"/>
				<ellipse transform="matrix(0.33 -0.944 0.944 0.33 -73.8407 268.0489)" class="st3" cx="151.9" cy="186" rx="3.7" ry="3.7"/>
				<ellipse transform="matrix(0.33 -0.944 0.944 0.33 -97.9977 215.1961)" class="st3" cx="102.6" cy="176.6" rx="3.7" ry="3.7"/>
				<ellipse transform="matrix(0.33 -0.944 0.944 0.33 28.2857 235.0734)" class="st3" cx="179.7" cy="97.6" rx="3.7" ry="3.7"/>
			</g>
			<g>
				<path class="st4" d="M162.8,35.7c0,0-11.7,39.3-42.9,47.2c0,0-9-44.8-4-51.9"/>
				<path class="st4" d="M152,186.1c0,0,21.5-20.9,32.2-35.9c0.9-1.3-56.4,0.2-65-15.5C113,123.4,138.1,90.9,120,83
					S79.3,44.9,79.3,44.9"/>
				<path class="st4" d="M179.8,97.6c0,0-27.3,9.1-61,38.2c-17.1,14.8-16.1,40.7-16.1,40.7"/>
			</g>
		</g>
		<g class="st6">
			<g>
				
					<ellipse transform="matrix(0.7446 -0.6675 0.6675 0.7446 -120.5233 116.3669)" class="st3" cx="91.8" cy="215.7" rx="3.7" ry="3.7"/>
				
					<ellipse transform="matrix(0.7446 -0.6675 0.6675 0.7446 -129.8711 82.9119)" class="st3" cx="43.4" cy="211.2" rx="3.7" ry="3.7"/>
				
					<ellipse transform="matrix(0.7446 -0.6675 0.6675 0.7446 -77.6257 86.6843)" class="st3" cx="74.5" cy="144.8" rx="3.7" ry="3.7"/>
				
					<ellipse transform="matrix(0.7446 -0.6675 0.6675 0.7446 -92.5169 106.9977)" class="st3" cx="93.6" cy="174.4" rx="3.7" ry="3.7"/>
			</g>
			<g>
				<path class="st4" d="M43.5,211.2c0,0,32.7-5.2,48.5,4.6c1.3,0.8-42.6,9.7-43.6,31.9"/>
				<path class="st4" d="M93.6,174.5l-1.7,41.2c-30.2-32.3-17.4-70.8-17.4-70.8"/>
			</g>
		</g>
		<g class="st6">
			<g>
				
					<ellipse transform="matrix(0.3937 -0.9192 0.9192 0.3937 -88.6588 104.037)" class="st3" cx="34.5" cy="119.2" rx="3.7" ry="3.7"/>
				
					<ellipse transform="matrix(0.3937 -0.9192 0.9192 0.3937 -52.3156 135.0804)" class="st3" cx="76.2" cy="107.2" rx="3.7" ry="3.7"/>
				
					<ellipse transform="matrix(0.3937 -0.9192 0.9192 0.3937 -102.0138 159.9438)" class="st3" cx="70.2" cy="157.3" rx="3.7" ry="3.7"/>
				
					<ellipse transform="matrix(0.3937 -0.9192 0.9192 0.3937 -139.3784 138.4715)" class="st3" cx="35.3" cy="174.9" rx="3.7" ry="3.7"/>
				
					<ellipse transform="matrix(0.3937 -0.9192 0.9192 0.3937 -15.3052 113.7262)" class="st3" cx="78.6" cy="68.5" rx="3.7" ry="3.7"/>
			</g>
			<g>
				<path class="st4" d="M76.2,107.2c0,0-24.4,2.1-41.7,12.1c0,0,27,36.9,35.6,38"/>
				<path class="st4" d="M35.3,175c0,0-7-37-0.6-55.7s-6.2-13.7-7-13.7"/>
				<path class="st4" d="M78.5,68.6c0,0-23.3,20.1-47.4,13.7"/>
			</g>
		</g>
	</g>
	<g>
		<g class="st2">
			<path class="st7" d="M61.5,86.9v63.9c0,1.8,0.9,3.5,2.5,4.5l15.4,10c1.8,1.1,4.2-0.1,4.2-2.3V69.6c0-2.4-2.8-3.6-4.5-1.9L63.1,83
				C62.1,84,61.5,85.4,61.5,86.9z"/>
			<path class="st7" d="M161.1,86.9v63.9c0,1.8-0.9,3.5-2.5,4.5l-15.4,10c-1.8,1.1-4.2-0.1-4.2-2.3V69.6c0-2.4,2.8-3.6,4.5-1.9
				l15.9,15.2C160.6,84,161.1,85.4,161.1,86.9z"/>
			<path class="st7" d="M89.4,121.1v40.4c0,1.1,0.7,2.2,1.8,2.8l11.7,6.3c1.3,0.8,3.1-0.1,3.1-1.4v-58.9c0-1.5-2.2-2.3-3.4-1.2
				l-12,9.7C89.8,119.3,89.4,120.2,89.4,121.1z"/>
			<path class="st7" d="M132.8,121.1v40.4c0,1.1-0.8,2.2-1.9,2.8l-12,6.3c-1.4,0.8-3.2-0.1-3.2-1.4v-58.9c0-1.5,2.2-2.3,3.5-1.2
				l12.3,9.7C132.4,119.3,132.8,120.2,132.8,121.1z"/>
		</g>
		<g>
			<path class="st0" d="M62.3,86.5v63.9c0,1.8,0.9,3.5,2.5,4.5l15.4,10c1.8,1.1,4.2-0.1,4.2-2.3V69.3c0-2.4-2.8-3.6-4.5-1.9L64,82.6
				C62.9,83.6,62.3,85.1,62.3,86.5z"/>
			<path class="st0" d="M160,86.5v63.9c0,1.8-0.9,3.5-2.5,4.5l-15.4,10c-1.8,1.1-4.2-0.1-4.2-2.3V69.3c0-2.4,2.8-3.6,4.5-1.9
				l15.8,15.3C159.3,83.6,160,85.1,160,86.5z"/>
			<path class="st0" d="M90.5,120.9v40.4c0,1.1,0.7,2.2,1.8,2.8l11.7,6.3c1.3,0.8,3.1-0.1,3.1-1.4v-59.1c0-1.5-2.2-2.3-3.4-1.2
				l-12,9.7C90.9,119.1,90.5,119.9,90.5,120.9z"/>
			<path class="st0" d="M131.7,120.9v40.4c0,1.1-0.8,2.2-1.9,2.8l-12,6.3c-1.4,0.8-3.2-0.1-3.2-1.4v-59.1c0-1.5,2.2-2.3,3.5-1.2
				l12.3,9.7C131.2,119.1,131.7,119.9,131.7,120.9z"/>
		</g>
	</g>
</g>
<text transform="matrix(1 0 0 1 229.6128 202.6472)" class="st3 st8 st9">BRYPT</text>
</svg>
